<svg version="1.1" xmlns="http://www.w3.org/2000/svg" xmlns:xlink="http://www.w3.org/1999/xlink" width="322" height="322" viewBox="0,0,322,322"><defs><radialGradient cx="240" cy="180" r="161" gradientUnits="userSpaceOnUse" id="color-1"><stop offset="0" stop-color="#000000"/><stop offset="1" stop-color="#000000" stop-opacity="0"/></radialGradient></defs><g transform="translate(-79,-19)"><g data-paper-data="{&quot;isPaintingLayer&quot;:true}" fill-rule="nonzero" stroke="none" stroke-linecap="butt" stroke-linejoin="miter" stroke-miterlimit="10" stroke-dasharray="" stroke-dashoffset="0" style="mix-blend-mode: normal"><path d="M79,180c0,-88.91784 72.08216,-161 161,-161c88.91785,0 161,72.08216 161,161c0,88.91785 -72.08215,161 -161,161c-88.91784,0 -161,-72.08215 -161,-161z" fill="url(#color-1)" stroke-width="0"/><g stroke-width="1"><path d="M194.3654,304.41745c-68.67843,-25.19029 -103.97315,-101.37361 -78.78286,-170.05204l248.83491,91.26919c-25.19029,68.67843 -101.37361,103.97315 -170.05204,78.78286z" data-paper-data="{&quot;index&quot;:null}" fill="#fafaff"/><path d="M285.6346,55.58254c68.67843,25.19029 103.97315,101.37361 78.78286,170.05204l-248.83491,-91.26919c25.19029,-68.67843 101.37361,-103.97315 170.05204,-78.78286z" data-paper-data="{&quot;index&quot;:null}" fill="#6ac5a2"/><path d="M115.58254,134.36542c12.60164,-34.35693 50.66909,-51.99307 85.02602,-39.39143c34.35693,12.60164 51.99307,50.66909 39.39143,85.02602c-12.60164,34.35693 -50.66909,51.99307 -85.02602,39.39143c-34.35693,-12.60164 -51.99307,-50.66909 -39.39143,-85.02602z" data-paper-data="{&quot;index&quot;:null}" fill="#6ac5a2"/><path d="M239.99999,180.00001c12.60164,-34.35693 50.66909,-51.99307 85.02602,-39.39143c34.35693,12.60164 51.99307,50.66909 39.39143,85.02602c-12.60164,34.35693 -50.66909,51.99307 -85.02602,39.39143c-34.35693,-12.60164 -51.99307,-50.66909 -39.39143,-85.02602z" data-paper-data="{&quot;index&quot;:null}" fill="#fafaff"/></g></g></g></svg>